<svg width="1600" height="900">
      <polygon points="0,0 100,0 100,100" style="fill:#657b83"></polygon>

      <polygon points="0,0 100,100 0,100" style="fill:#93a1a1"></polygon>

      <polygon points="0,100 100,100 100,200" style="fill:#586e75"></polygon>

      <polygon points="0,100 100,200 0,200" style="fill:#586e75"></polygon>

      <polygon points="0,200 100,200 0,300" style="fill:#eee8d5"></polygon>

      <polygon points="100,200 0,300 100,300" style="fill:#002b36"></polygon>

      <polygon points="0,300 100,300 0,400" style="fill:#fdf6e3"></polygon>

      <polygon points="100,300 0,400 100,400" style="fill:#586e75"></polygon>

      <polygon points="0,400 100,400 100,500" style="fill:#fdf6e3"></polygon>

      <polygon points="0,400 100,500 0,500" style="fill:#002b36"></polygon>

      <polygon points="0,500 100,500 0,600" style="fill:#fdf6e3"></polygon>

      <polygon points="100,500 0,600 100,600" style="fill:#586e75"></polygon>

      <polygon points="0,600 100,600 0,700" style="fill:#002b36"></polygon>

      <polygon points="100,600 0,700 100,700" style="fill:#eee8d5"></polygon>

      <polygon points="0,700 100,700 100,800" style="fill:#839496"></polygon>

      <polygon points="0,700 100,800 0,800" style="fill:#586e75"></polygon>

      <polygon points="0,800 100,800 100,900" style="fill:#93a1a1"></polygon>

      <polygon points="0,800 100,900 0,900" style="fill:#eee8d5"></polygon>

      <polygon points="100,0 200,0 100,100" style="fill:#fdf6e3"></polygon>

      <polygon points="200,0 100,100 200,100" style="fill:#657b83"></polygon>

      <polygon points="100,100 200,100 100,200" style="fill:#839496"></polygon>

      <polygon points="200,100 100,200 200,200" style="fill:#073642"></polygon>

      <polygon points="100,200 200,200 100,300" style="fill:#657b83"></polygon>

      <polygon points="200,200 100,300 200,300" style="fill:#eee8d5"></polygon>

      <polygon points="100,300 200,300 200,400" style="fill:#839496"></polygon>

      <polygon points="100,300 200,400 100,400" style="fill:#839496"></polygon>

      <polygon points="100,400 200,400 100,500" style="fill:#839496"></polygon>

      <polygon points="200,400 100,500 200,500" style="fill:#93a1a1"></polygon>

      <polygon points="100,500 200,500 200,600" style="fill:#fdf6e3"></polygon>

      <polygon points="100,500 200,600 100,600" style="fill:#839496"></polygon>

      <polygon points="100,600 200,600 100,700" style="fill:#fdf6e3"></polygon>

      <polygon points="200,600 100,700 200,700" style="fill:#fdf6e3"></polygon>

      <polygon points="100,700 200,700 100,800" style="fill:#93a1a1"></polygon>

      <polygon points="200,700 100,800 200,800" style="fill:#839496"></polygon>

      <polygon points="100,800 200,800 200,900" style="fill:#839496"></polygon>

      <polygon points="100,800 200,900 100,900" style="fill:#839496"></polygon>

      <polygon points="200,0 300,0 300,100" style="fill:#eee8d5"></polygon>

      <polygon points="200,0 300,100 200,100" style="fill:#93a1a1"></polygon>

      <polygon points="200,100 300,100 300,200" style="fill:#586e75"></polygon>

      <polygon points="200,100 300,200 200,200" style="fill:#93a1a1"></polygon>

      <polygon points="200,200 300,200 200,300" style="fill:#839496"></polygon>

      <polygon points="300,200 200,300 300,300" style="fill:#93a1a1"></polygon>

      <polygon points="200,300 300,300 300,400" style="fill:#073642"></polygon>

      <polygon points="200,300 300,400 200,400" style="fill:#073642"></polygon>

      <polygon points="200,400 300,400 200,500" style="fill:#839496"></polygon>

      <polygon points="300,400 200,500 300,500" style="fill:#fdf6e3"></polygon>

      <polygon points="200,500 300,500 300,600" style="fill:#073642"></polygon>

      <polygon points="200,500 300,600 200,600" style="fill:#839496"></polygon>

      <polygon points="200,600 300,600 200,700" style="fill:#073642"></polygon>

      <polygon points="300,600 200,700 300,700" style="fill:#657b83"></polygon>

      <polygon points="200,700 300,700 300,800" style="fill:#eee8d5"></polygon>

      <polygon points="200,700 300,800 200,800" style="fill:#657b83"></polygon>

      <polygon points="200,800 300,800 300,900" style="fill:#073642"></polygon>

      <polygon points="200,800 300,900 200,900" style="fill:#fdf6e3"></polygon>

      <polygon points="300,0 400,0 300,100" style="fill:#839496"></polygon>

      <polygon points="400,0 300,100 400,100" style="fill:#657b83"></polygon>

      <polygon points="300,100 400,100 400,200" style="fill:#073642"></polygon>

      <polygon points="300,100 400,200 300,200" style="fill:#657b83"></polygon>

      <polygon points="300,200 400,200 300,300" style="fill:#839496"></polygon>

      <polygon points="400,200 300,300 400,300" style="fill:#eee8d5"></polygon>

      <polygon points="300,300 400,300 300,400" style="fill:#fdf6e3"></polygon>

      <polygon points="400,300 300,400 400,400" style="fill:#002b36"></polygon>

      <polygon points="300,400 400,400 300,500" style="fill:#586e75"></polygon>

      <polygon points="400,400 300,500 400,500" style="fill:#657b83"></polygon>

      <polygon points="300,500 400,500 400,600" style="fill:#002b36"></polygon>

      <polygon points="300,500 400,600 300,600" style="fill:#002b36"></polygon>

      <polygon points="300,600 400,600 400,700" style="fill:#93a1a1"></polygon>

      <polygon points="300,600 400,700 300,700" style="fill:#657b83"></polygon>

      <polygon points="300,700 400,700 400,800" style="fill:#93a1a1"></polygon>

      <polygon points="300,700 400,800 300,800" style="fill:#93a1a1"></polygon>

      <polygon points="300,800 400,800 400,900" style="fill:#93a1a1"></polygon>

      <polygon points="300,800 400,900 300,900" style="fill:#839496"></polygon>

      <polygon points="400,0 500,0 400,100" style="fill:#fdf6e3"></polygon>

      <polygon points="500,0 400,100 500,100" style="fill:#eee8d5"></polygon>

      <polygon points="400,100 500,100 500,200" style="fill:#586e75"></polygon>

      <polygon points="400,100 500,200 400,200" style="fill:#002b36"></polygon>

      <polygon points="400,200 500,200 400,300" style="fill:#839496"></polygon>

      <polygon points="500,200 400,300 500,300" style="fill:#93a1a1"></polygon>

      <polygon points="400,300 500,300 400,400" style="fill:#fdf6e3"></polygon>

      <polygon points="500,300 400,400 500,400" style="fill:#586e75"></polygon>

      <polygon points="400,400 500,400 400,500" style="fill:#073642"></polygon>

      <polygon points="500,400 400,500 500,500" style="fill:#657b83"></polygon>

      <polygon points="400,500 500,500 500,600" style="fill:#073642"></polygon>

      <polygon points="400,500 500,600 400,600" style="fill:#93a1a1"></polygon>

      <polygon points="400,600 500,600 400,700" style="fill:#93a1a1"></polygon>

      <polygon points="500,600 400,700 500,700" style="fill:#586e75"></polygon>

      <polygon points="400,700 500,700 400,800" style="fill:#fdf6e3"></polygon>

      <polygon points="500,700 400,800 500,800" style="fill:#073642"></polygon>

      <polygon points="400,800 500,800 500,900" style="fill:#fdf6e3"></polygon>

      <polygon points="400,800 500,900 400,900" style="fill:#002b36"></polygon>

      <polygon points="500,0 600,0 500,100" style="fill:#586e75"></polygon>

      <polygon points="600,0 500,100 600,100" style="fill:#fdf6e3"></polygon>

      <polygon points="500,100 600,100 500,200" style="fill:#657b83"></polygon>

      <polygon points="600,100 500,200 600,200" style="fill:#073642"></polygon>

      <polygon points="500,200 600,200 600,300" style="fill:#002b36"></polygon>

      <polygon points="500,200 600,300 500,300" style="fill:#657b83"></polygon>

      <polygon points="500,300 600,300 500,400" style="fill:#073642"></polygon>

      <polygon points="600,300 500,400 600,400" style="fill:#073642"></polygon>

      <polygon points="500,400 600,400 600,500" style="fill:#586e75"></polygon>

      <polygon points="500,400 600,500 500,500" style="fill:#fdf6e3"></polygon>

      <polygon points="500,500 600,500 500,600" style="fill:#839496"></polygon>

      <polygon points="600,500 500,600 600,600" style="fill:#657b83"></polygon>

      <polygon points="500,600 600,600 500,700" style="fill:#93a1a1"></polygon>

      <polygon points="600,600 500,700 600,700" style="fill:#073642"></polygon>

      <polygon points="500,700 600,700 500,800" style="fill:#fdf6e3"></polygon>

      <polygon points="600,700 500,800 600,800" style="fill:#002b36"></polygon>

      <polygon points="500,800 600,800 600,900" style="fill:#eee8d5"></polygon>

      <polygon points="500,800 600,900 500,900" style="fill:#eee8d5"></polygon>

      <polygon points="600,0 700,0 600,100" style="fill:#fdf6e3"></polygon>

      <polygon points="700,0 600,100 700,100" style="fill:#586e75"></polygon>

      <polygon points="600,100 700,100 700,200" style="fill:#586e75"></polygon>

      <polygon points="600,100 700,200 600,200" style="fill:#93a1a1"></polygon>

      <polygon points="600,200 700,200 700,300" style="fill:#fdf6e3"></polygon>

      <polygon points="600,200 700,300 600,300" style="fill:#eee8d5"></polygon>

      <polygon points="600,300 700,300 700,400" style="fill:#073642"></polygon>

      <polygon points="600,300 700,400 600,400" style="fill:#002b36"></polygon>

      <polygon points="600,400 700,400 700,500" style="fill:#fdf6e3"></polygon>

      <polygon points="600,400 700,500 600,500" style="fill:#586e75"></polygon>

      <polygon points="600,500 700,500 700,600" style="fill:#fdf6e3"></polygon>

      <polygon points="600,500 700,600 600,600" style="fill:#839496"></polygon>

      <polygon points="600,600 700,600 700,700" style="fill:#657b83"></polygon>

      <polygon points="600,600 700,700 600,700" style="fill:#002b36"></polygon>

      <polygon points="600,700 700,700 600,800" style="fill:#fdf6e3"></polygon>

      <polygon points="700,700 600,800 700,800" style="fill:#93a1a1"></polygon>

      <polygon points="600,800 700,800 600,900" style="fill:#fdf6e3"></polygon>

      <polygon points="700,800 600,900 700,900" style="fill:#839496"></polygon>

      <polygon points="700,0 800,0 800,100" style="fill:#586e75"></polygon>

      <polygon points="700,0 800,100 700,100" style="fill:#fdf6e3"></polygon>

      <polygon points="700,100 800,100 800,200" style="fill:#839496"></polygon>

      <polygon points="700,100 800,200 700,200" style="fill:#fdf6e3"></polygon>

      <polygon points="700,200 800,200 700,300" style="fill:#eee8d5"></polygon>

      <polygon points="800,200 700,300 800,300" style="fill:#eee8d5"></polygon>

      <polygon points="700,300 800,300 700,400" style="fill:#002b36"></polygon>

      <polygon points="800,300 700,400 800,400" style="fill:#839496"></polygon>

      <polygon points="700,400 800,400 800,500" style="fill:#839496"></polygon>

      <polygon points="700,400 800,500 700,500" style="fill:#073642"></polygon>

      <polygon points="700,500 800,500 700,600" style="fill:#eee8d5"></polygon>

      <polygon points="800,500 700,600 800,600" style="fill:#fdf6e3"></polygon>

      <polygon points="700,600 800,600 700,700" style="fill:#839496"></polygon>

      <polygon points="800,600 700,700 800,700" style="fill:#fdf6e3"></polygon>

      <polygon points="700,700 800,700 700,800" style="fill:#fdf6e3"></polygon>

      <polygon points="800,700 700,800 800,800" style="fill:#586e75"></polygon>

      <polygon points="700,800 800,800 800,900" style="fill:#657b83"></polygon>

      <polygon points="700,800 800,900 700,900" style="fill:#eee8d5"></polygon>

      <polygon points="800,0 900,0 900,100" style="fill:#93a1a1"></polygon>

      <polygon points="800,0 900,100 800,100" style="fill:#586e75"></polygon>

      <polygon points="800,100 900,100 900,200" style="fill:#839496"></polygon>

      <polygon points="800,100 900,200 800,200" style="fill:#839496"></polygon>

      <polygon points="800,200 900,200 900,300" style="fill:#586e75"></polygon>

      <polygon points="800,200 900,300 800,300" style="fill:#657b83"></polygon>

      <polygon points="800,300 900,300 800,400" style="fill:#93a1a1"></polygon>

      <polygon points="900,300 800,400 900,400" style="fill:#93a1a1"></polygon>

      <polygon points="800,400 900,400 900,500" style="fill:#657b83"></polygon>

      <polygon points="800,400 900,500 800,500" style="fill:#93a1a1"></polygon>

      <polygon points="800,500 900,500 900,600" style="fill:#839496"></polygon>

      <polygon points="800,500 900,600 800,600" style="fill:#002b36"></polygon>

      <polygon points="800,600 900,600 900,700" style="fill:#657b83"></polygon>

      <polygon points="800,600 900,700 800,700" style="fill:#073642"></polygon>

      <polygon points="800,700 900,700 900,800" style="fill:#002b36"></polygon>

      <polygon points="800,700 900,800 800,800" style="fill:#93a1a1"></polygon>

      <polygon points="800,800 900,800 800,900" style="fill:#fdf6e3"></polygon>

      <polygon points="900,800 800,900 900,900" style="fill:#fdf6e3"></polygon>

      <polygon points="900,0 1000,0 1000,100" style="fill:#657b83"></polygon>

      <polygon points="900,0 1000,100 900,100" style="fill:#839496"></polygon>

      <polygon points="900,100 1000,100 900,200" style="fill:#eee8d5"></polygon>

      <polygon points="1000,100 900,200 1000,200" style="fill:#586e75"></polygon>

      <polygon points="900,200 1000,200 1000,300" style="fill:#657b83"></polygon>

      <polygon points="900,200 1000,300 900,300" style="fill:#839496"></polygon>

      <polygon points="900,300 1000,300 1000,400" style="fill:#839496"></polygon>

      <polygon points="900,300 1000,400 900,400" style="fill:#586e75"></polygon>

      <polygon points="900,400 1000,400 1000,500" style="fill:#93a1a1"></polygon>

      <polygon points="900,400 1000,500 900,500" style="fill:#839496"></polygon>

      <polygon points="900,500 1000,500 1000,600" style="fill:#657b83"></polygon>

      <polygon points="900,500 1000,600 900,600" style="fill:#002b36"></polygon>

      <polygon points="900,600 1000,600 900,700" style="fill:#002b36"></polygon>

      <polygon points="1000,600 900,700 1000,700" style="fill:#657b83"></polygon>

      <polygon points="900,700 1000,700 900,800" style="fill:#657b83"></polygon>

      <polygon points="1000,700 900,800 1000,800" style="fill:#eee8d5"></polygon>

      <polygon points="900,800 1000,800 900,900" style="fill:#073642"></polygon>

      <polygon points="1000,800 900,900 1000,900" style="fill:#073642"></polygon>

      <polygon points="1000,0 1100,0 1100,100" style="fill:#073642"></polygon>

      <polygon points="1000,0 1100,100 1000,100" style="fill:#657b83"></polygon>

      <polygon points="1000,100 1100,100 1000,200" style="fill:#fdf6e3"></polygon>

      <polygon points="1100,100 1000,200 1100,200" style="fill:#eee8d5"></polygon>

      <polygon points="1000,200 1100,200 1100,300" style="fill:#586e75"></polygon>

      <polygon points="1000,200 1100,300 1000,300" style="fill:#073642"></polygon>

      <polygon points="1000,300 1100,300 1000,400" style="fill:#002b36"></polygon>

      <polygon points="1100,300 1000,400 1100,400" style="fill:#073642"></polygon>

      <polygon points="1000,400 1100,400 1000,500" style="fill:#839496"></polygon>

      <polygon points="1100,400 1000,500 1100,500" style="fill:#657b83"></polygon>

      <polygon points="1000,500 1100,500 1100,600" style="fill:#93a1a1"></polygon>

      <polygon points="1000,500 1100,600 1000,600" style="fill:#657b83"></polygon>

      <polygon points="1000,600 1100,600 1000,700" style="fill:#586e75"></polygon>

      <polygon points="1100,600 1000,700 1100,700" style="fill:#002b36"></polygon>

      <polygon points="1000,700 1100,700 1000,800" style="fill:#eee8d5"></polygon>

      <polygon points="1100,700 1000,800 1100,800" style="fill:#eee8d5"></polygon>

      <polygon points="1000,800 1100,800 1100,900" style="fill:#586e75"></polygon>

      <polygon points="1000,800 1100,900 1000,900" style="fill:#073642"></polygon>

      <polygon points="1100,0 1200,0 1200,100" style="fill:#586e75"></polygon>

      <polygon points="1100,0 1200,100 1100,100" style="fill:#002b36"></polygon>

      <polygon points="1100,100 1200,100 1100,200" style="fill:#839496"></polygon>

      <polygon points="1200,100 1100,200 1200,200" style="fill:#073642"></polygon>

      <polygon points="1100,200 1200,200 1100,300" style="fill:#fdf6e3"></polygon>

      <polygon points="1200,200 1100,300 1200,300" style="fill:#eee8d5"></polygon>

      <polygon points="1100,300 1200,300 1200,400" style="fill:#586e75"></polygon>

      <polygon points="1100,300 1200,400 1100,400" style="fill:#002b36"></polygon>

      <polygon points="1100,400 1200,400 1100,500" style="fill:#073642"></polygon>

      <polygon points="1200,400 1100,500 1200,500" style="fill:#93a1a1"></polygon>

      <polygon points="1100,500 1200,500 1200,600" style="fill:#586e75"></polygon>

      <polygon points="1100,500 1200,600 1100,600" style="fill:#657b83"></polygon>

      <polygon points="1100,600 1200,600 1100,700" style="fill:#073642"></polygon>

      <polygon points="1200,600 1100,700 1200,700" style="fill:#586e75"></polygon>

      <polygon points="1100,700 1200,700 1200,800" style="fill:#657b83"></polygon>

      <polygon points="1100,700 1200,800 1100,800" style="fill:#657b83"></polygon>

      <polygon points="1100,800 1200,800 1200,900" style="fill:#002b36"></polygon>

      <polygon points="1100,800 1200,900 1100,900" style="fill:#002b36"></polygon>

      <polygon points="1200,0 1300,0 1200,100" style="fill:#eee8d5"></polygon>

      <polygon points="1300,0 1200,100 1300,100" style="fill:#073642"></polygon>

      <polygon points="1200,100 1300,100 1200,200" style="fill:#586e75"></polygon>

      <polygon points="1300,100 1200,200 1300,200" style="fill:#657b83"></polygon>

      <polygon points="1200,200 1300,200 1300,300" style="fill:#fdf6e3"></polygon>

      <polygon points="1200,200 1300,300 1200,300" style="fill:#586e75"></polygon>

      <polygon points="1200,300 1300,300 1300,400" style="fill:#586e75"></polygon>

      <polygon points="1200,300 1300,400 1200,400" style="fill:#fdf6e3"></polygon>

      <polygon points="1200,400 1300,400 1200,500" style="fill:#586e75"></polygon>

      <polygon points="1300,400 1200,500 1300,500" style="fill:#657b83"></polygon>

      <polygon points="1200,500 1300,500 1300,600" style="fill:#073642"></polygon>

      <polygon points="1200,500 1300,600 1200,600" style="fill:#073642"></polygon>

      <polygon points="1200,600 1300,600 1200,700" style="fill:#586e75"></polygon>

      <polygon points="1300,600 1200,700 1300,700" style="fill:#eee8d5"></polygon>

      <polygon points="1200,700 1300,700 1300,800" style="fill:#eee8d5"></polygon>

      <polygon points="1200,700 1300,800 1200,800" style="fill:#002b36"></polygon>

      <polygon points="1200,800 1300,800 1200,900" style="fill:#93a1a1"></polygon>

      <polygon points="1300,800 1200,900 1300,900" style="fill:#002b36"></polygon>

      <polygon points="1300,0 1400,0 1400,100" style="fill:#eee8d5"></polygon>

      <polygon points="1300,0 1400,100 1300,100" style="fill:#fdf6e3"></polygon>

      <polygon points="1300,100 1400,100 1300,200" style="fill:#002b36"></polygon>

      <polygon points="1400,100 1300,200 1400,200" style="fill:#073642"></polygon>

      <polygon points="1300,200 1400,200 1300,300" style="fill:#002b36"></polygon>

      <polygon points="1400,200 1300,300 1400,300" style="fill:#fdf6e3"></polygon>

      <polygon points="1300,300 1400,300 1300,400" style="fill:#839496"></polygon>

      <polygon points="1400,300 1300,400 1400,400" style="fill:#657b83"></polygon>

      <polygon points="1300,400 1400,400 1300,500" style="fill:#002b36"></polygon>

      <polygon points="1400,400 1300,500 1400,500" style="fill:#002b36"></polygon>

      <polygon points="1300,500 1400,500 1300,600" style="fill:#073642"></polygon>

      <polygon points="1400,500 1300,600 1400,600" style="fill:#657b83"></polygon>

      <polygon points="1300,600 1400,600 1300,700" style="fill:#93a1a1"></polygon>

      <polygon points="1400,600 1300,700 1400,700" style="fill:#839496"></polygon>

      <polygon points="1300,700 1400,700 1300,800" style="fill:#eee8d5"></polygon>

      <polygon points="1400,700 1300,800 1400,800" style="fill:#073642"></polygon>

      <polygon points="1300,800 1400,800 1400,900" style="fill:#eee8d5"></polygon>

      <polygon points="1300,800 1400,900 1300,900" style="fill:#586e75"></polygon>

      <polygon points="1400,0 1500,0 1400,100" style="fill:#073642"></polygon>

      <polygon points="1500,0 1400,100 1500,100" style="fill:#586e75"></polygon>

      <polygon points="1400,100 1500,100 1400,200" style="fill:#fdf6e3"></polygon>

      <polygon points="1500,100 1400,200 1500,200" style="fill:#002b36"></polygon>

      <polygon points="1400,200 1500,200 1500,300" style="fill:#586e75"></polygon>

      <polygon points="1400,200 1500,300 1400,300" style="fill:#fdf6e3"></polygon>

      <polygon points="1400,300 1500,300 1500,400" style="fill:#fdf6e3"></polygon>

      <polygon points="1400,300 1500,400 1400,400" style="fill:#002b36"></polygon>

      <polygon points="1400,400 1500,400 1500,500" style="fill:#657b83"></polygon>

      <polygon points="1400,400 1500,500 1400,500" style="fill:#586e75"></polygon>

      <polygon points="1400,500 1500,500 1400,600" style="fill:#fdf6e3"></polygon>

      <polygon points="1500,500 1400,600 1500,600" style="fill:#002b36"></polygon>

      <polygon points="1400,600 1500,600 1500,700" style="fill:#073642"></polygon>

      <polygon points="1400,600 1500,700 1400,700" style="fill:#839496"></polygon>

      <polygon points="1400,700 1500,700 1500,800" style="fill:#93a1a1"></polygon>

      <polygon points="1400,700 1500,800 1400,800" style="fill:#002b36"></polygon>

      <polygon points="1400,800 1500,800 1500,900" style="fill:#657b83"></polygon>

      <polygon points="1400,800 1500,900 1400,900" style="fill:#93a1a1"></polygon>

      <polygon points="1500,0 1600,0 1500,100" style="fill:#839496"></polygon>

      <polygon points="1600,0 1500,100 1600,100" style="fill:#93a1a1"></polygon>

      <polygon points="1500,100 1600,100 1600,200" style="fill:#fdf6e3"></polygon>

      <polygon points="1500,100 1600,200 1500,200" style="fill:#839496"></polygon>

      <polygon points="1500,200 1600,200 1500,300" style="fill:#93a1a1"></polygon>

      <polygon points="1600,200 1500,300 1600,300" style="fill:#839496"></polygon>

      <polygon points="1500,300 1600,300 1600,400" style="fill:#fdf6e3"></polygon>

      <polygon points="1500,300 1600,400 1500,400" style="fill:#fdf6e3"></polygon>

      <polygon points="1500,400 1600,400 1600,500" style="fill:#586e75"></polygon>

      <polygon points="1500,400 1600,500 1500,500" style="fill:#eee8d5"></polygon>

      <polygon points="1500,500 1600,500 1500,600" style="fill:#657b83"></polygon>

      <polygon points="1600,500 1500,600 1600,600" style="fill:#93a1a1"></polygon>

      <polygon points="1500,600 1600,600 1500,700" style="fill:#002b36"></polygon>

      <polygon points="1600,600 1500,700 1600,700" style="fill:#fdf6e3"></polygon>

      <polygon points="1500,700 1600,700 1500,800" style="fill:#657b83"></polygon>

      <polygon points="1600,700 1500,800 1600,800" style="fill:#657b83"></polygon>

      <polygon points="1500,800 1600,800 1600,900" style="fill:#fdf6e3"></polygon>

      <polygon points="1500,800 1600,900 1500,900" style="fill:#fdf6e3"></polygon>
    </svg>
